<?xml version="1.0" encoding="utf-8"?>
<!-- Generator: Adobe Illustrator 16.0.0, SVG Export Plug-In . SVG Version: 6.00 Build 0)  -->
<!DOCTYPE svg PUBLIC "-//W3C//DTD SVG 1.1//EN" "http://www.w3.org/Graphics/SVG/1.1/DTD/svg11.dtd">
<svg version="1.1" xmlns="http://www.w3.org/2000/svg" xmlns:xlink="http://www.w3.org/1999/xlink" x="0px" y="0px" width="400px"
	 height="300px" viewBox="0 0 400 300" enable-background="new 0 0 400 300" xml:space="preserve">
<g id="Layer_1">
	<g>
		<path fill="#EA4335" d="M200,57.517c23.87,0,45.558,9.123,61.965,23.969l38.646-41.372C274.101,15.829,238.784,1,200,1
			C142.933,1,93.385,33.095,68.356,80.205l45.471,36.417C127.227,82.064,160.709,57.517,200,57.517z"/>
		<path fill="#FBBC05" d="M107.519,150.001c0-11.785,2.289-23.015,6.31-33.379L68.357,80.207C57.294,101.029,51,124.776,51,150.002
			c0,25.34,6.346,49.196,17.505,70.087l45.201-37.042C109.769,172.77,107.519,161.661,107.519,150.001z"/>
		<path fill="#34A853" d="M251.418,226.811c-14.711,9.867-32.371,15.674-51.416,15.674c-39.419,0-72.984-24.703-86.297-59.438
			l-45.201,37.04C93.582,267.04,143.051,299,199.998,299c36.985,0,70.795-13.504,96.843-35.812L251.418,226.811z"/>
		<path fill="#4285F4" d="M349,150.001c0-8.621-0.796-17.047-2.211-25.262H205.994v52.664h82.36
			c-6.325,20.413-19.566,37.752-36.937,49.408l45.424,36.378C328.753,235.861,349,195.308,349,150.001z"/>
	</g>
</g>
<g id="Homepage">
</g>
</svg>
