<svg xmlns="http://www.w3.org/2000/svg" viewBox="0 0 284 90"><style>.st0{fill:#8492a6}</style><path class="st0" d="M261.52 26.29c-6.61 0-12.42 3.05-16.37 7.78v-7.09h-6.61V90h6.61V63.41c3.94 4.83 9.76 7.98 16.37 7.98 12.32 0 22.48-10.54 22.48-22.65 0-12.31-10.15-22.45-22.48-22.45zm.2 38.6c-8.58 0-16.17-7.58-16.17-16.15 0-8.76 7.59-15.95 16.17-15.95 8.77 0 15.38 7.19 15.38 15.95 0 8.57-6.61 16.15-15.38 16.15zM177.34 48.74c0-12.31-10.15-22.45-22.48-22.45s-22.48 10.14-22.48 22.45c0 12.11 10.15 22.65 22.48 22.65 8.77 0 16.56-5.02 20.21-12.51h-8.18c-2.76 3.55-7 6.01-12.03 6.01-7.69 0-13.9-5.91-15.28-13.1h37.76v-3.05zm-37.76-3.25c1.48-7.19 7.59-12.7 15.28-12.7 7.59 0 13.8 5.51 15.28 12.7h-30.56zM229.19 48.74c0-12.31-10.15-22.45-22.48-22.45-12.32 0-22.48 10.14-22.48 22.45 0 12.11 10.15 22.65 22.48 22.65 8.77 0 16.56-5.02 20.21-12.51h-8.18c-2.76 3.55-7 6.01-12.03 6.01-7.69 0-13.9-5.91-15.28-13.1h37.76v-3.05zm-37.76-3.25c1.48-7.19 7.59-12.7 15.28-12.7 7.59 0 13.8 5.51 15.28 12.7h-30.56z"/><path class="st0" d="M94.2 90l36.42-63.02" id="LINE_19_"/><path class="st0" d="M89.95 82.66l11.13-19.26-16.81-29.08 4.24-7.34 16.81 29.08 16.81-29.08h8.49L94.2 90z" id="LWPOLYLINE_70_"/><g><linearGradient id="SVGID_1_" gradientUnits="userSpaceOnUse" x1="-12.083" y1="67.5" x2="32.917" y2="22.5"><stop offset="0" stop-color="#08b0f4"/><stop offset="1" stop-color="#67e298"/></linearGradient><path d="M10.42 90L0 71.98 14.55 46.8h20.83L10.42 90zm0-90L0 18.02 14.55 43.2h20.83L10.42 0z" fill="url(#SVGID_1_)"/><g id="LWPOLYLINE_59_"><linearGradient id="SVGID_2_" gradientUnits="userSpaceOnUse" x1="36.203" y1="16.335" x2="57.489" y2="-4.951"><stop offset="0" stop-color="#67e298"/><stop offset="1" stop-color="#74ffac"/></linearGradient><path fill="url(#SVGID_2_)" d="M62.44 0H31.25l15.6 26.98z"/></g></g></svg>