<svg width="40" height="40" xmlns="http://www.w3.org/2000/svg"><path d="M40 20C40 8.972 31.028 0 20 0S0 8.972 0 20c0 5.825 2.505 11.075 6.492 14.733l-.02.017.65.547c.042.035.087.064.13.1a20.1 20.1 0 0 0 1.065.819 20.368 20.368 0 0 0 3.185 1.882c.034.016.069.03.103.047a19.82 19.82 0 0 0 4.837 1.53l.134.025c.527.09 1.059.163 1.598.212.065.006.13.01.197.015.537.045 1.08.073 1.629.073.545 0 1.082-.028 1.616-.071l.203-.016c.534-.048 1.062-.119 1.584-.208l.136-.025c1.67-.3 3.269-.807 4.769-1.495l.166-.075a20.101 20.101 0 0 0 1.637-.865c.39-.23.776-.471 1.15-.727.134-.092.266-.189.399-.285.319-.23.632-.466.937-.714.068-.055.14-.102.207-.158l.665-.556-.02-.017C37.471 31.128 40 25.855 40 20zM1.455 20C1.455 9.774 9.774 1.455 20 1.455S38.545 9.774 38.545 20c0 5.51-2.418 10.465-6.246 13.864a5.45 5.45 0 0 0-.65-.39l-6.157-3.08a1.612 1.612 0 0 1-.896-1.449v-2.15c.142-.176.293-.375.448-.594a14.82 14.82 0 0 0 1.903-3.726 2.64 2.64 0 0 0 1.516-2.392v-2.578c0-.63-.231-1.242-.645-1.723v-3.394c.038-.379.172-2.508-1.37-4.265-1.34-1.53-3.51-2.305-6.448-2.305-2.939 0-5.108.775-6.449 2.304-1.54 1.757-1.407 3.888-1.37 4.265v3.394a2.65 2.65 0 0 0-.644 1.723v2.578c0 .8.359 1.548.974 2.052.59 2.307 1.802 4.054 2.25 4.646v2.105c0 .594-.324 1.139-.845 1.424l-5.75 3.137c-.184.1-.366.216-.548.346C3.838 30.394 1.455 25.471 1.455 20z" fill="#FFF" fill-rule="nonzero"/></svg>